<svg width="235" height="33" viewBox="0 0 235 33" fill="none" xmlns="http://www.w3.org/2000/svg">
<path d="M14.155 19.175V16.07H22.75V31.37C18.97 32.09 15.595 32.45 12.625 32.45C8.095 32.45 4.945 31.145 3.175 28.535C1.435 25.925 0.565 21.905 0.565 16.475C0.565 11.015 1.435 6.98 3.175 4.37C4.945 1.73 8.065 0.409999 12.535 0.409999C15.325 0.409999 18.22 0.709999 21.22 1.31L22.75 1.58L22.615 4.46C18.895 3.83 15.67 3.515 12.94 3.515C9.49 3.515 7.165 4.52 5.965 6.53C4.765 8.51 4.165 11.825 4.165 16.475C4.165 21.095 4.765 24.41 5.965 26.42C7.165 28.4 9.475 29.39 12.895 29.39C14.995 29.39 17.14 29.18 19.33 28.76V19.175H14.155ZM44.8545 16.295V27.815C44.9445 28.925 45.8145 29.585 47.4645 29.795L47.3295 32.45C44.9595 32.45 43.1745 31.85 41.9745 30.65C39.2745 31.85 36.5745 32.45 33.8745 32.45C31.8045 32.45 30.2295 31.865 29.1495 30.695C28.0695 29.525 27.5295 27.845 27.5295 25.655C27.5295 23.465 28.0845 21.86 29.1945 20.84C30.3045 19.79 32.0445 19.145 34.4145 18.905L41.4795 18.23V16.295C41.4795 14.765 41.1495 13.67 40.4895 13.01C39.8295 12.35 38.9295 12.02 37.7895 12.02C35.3895 12.02 32.8995 12.17 30.3195 12.47L28.9245 12.605L28.7895 10.04C32.0895 9.38 35.0145 9.05 37.5645 9.05C40.1145 9.05 41.9595 9.635 43.0995 10.805C44.2695 11.975 44.8545 13.805 44.8545 16.295ZM30.9945 25.475C30.9945 28.235 32.1345 29.615 34.4145 29.615C36.4545 29.615 38.4645 29.27 40.4445 28.58L41.4795 28.22V20.795L34.8195 21.425C33.4695 21.545 32.4945 21.935 31.8945 22.595C31.2945 23.255 30.9945 24.215 30.9945 25.475ZM54.8884 32H51.5134V9.5H54.8434V11.075C57.0934 9.725 59.2834 9.05 61.4134 9.05C64.2034 9.05 66.1534 9.815 67.2634 11.345C68.2534 10.745 69.5284 10.22 71.0884 9.77C72.6784 9.29 74.0734 9.05 75.2734 9.05C78.2734 9.05 80.2834 9.86 81.3034 11.48C82.3534 13.07 82.8784 15.95 82.8784 20.12V32H79.5034V20.21C79.5034 17.09 79.2034 14.96 78.6034 13.82C78.0034 12.65 76.7284 12.065 74.7784 12.065C73.7884 12.065 72.7684 12.215 71.7184 12.515C70.6684 12.785 69.8584 13.055 69.2884 13.325L68.4334 13.73C68.8234 14.72 69.0184 16.91 69.0184 20.3V32H65.6434V20.39C65.6434 17.15 65.3434 14.96 64.7434 13.82C64.1734 12.65 62.8984 12.065 60.9184 12.065C59.9584 12.065 58.9684 12.215 57.9484 12.515C56.9584 12.785 56.1934 13.055 55.6534 13.325L54.8884 13.73V32ZM104.431 29.21L105.736 29.075L105.826 31.73C102.406 32.21 99.4806 32.45 97.0506 32.45C93.8106 32.45 91.5156 31.52 90.1656 29.66C88.8156 27.77 88.1406 24.845 88.1406 20.885C88.1406 12.995 91.2756 9.05 97.5456 9.05C100.576 9.05 102.841 9.905 104.341 11.615C105.841 13.295 106.591 15.95 106.591 19.58L106.411 22.145H91.5606C91.5606 24.635 92.0106 26.48 92.9106 27.68C93.8106 28.88 95.3706 29.48 97.5906 29.48C99.8406 29.48 102.121 29.39 104.431 29.21ZM103.216 19.445C103.216 16.685 102.766 14.735 101.866 13.595C100.996 12.455 99.5556 11.885 97.5456 11.885C95.5656 11.885 94.0656 12.485 93.0456 13.685C92.0556 14.885 91.5456 16.805 91.5156 19.445H103.216ZM122.323 32V0.859999H128.578L137.398 27.185L146.218 0.859999H152.473V32H149.008V4.55H148.378L139.333 30.875H135.463L126.418 4.55H125.788V32H122.323ZM175.416 16.295V27.815C175.506 28.925 176.376 29.585 178.026 29.795L177.891 32.45C175.521 32.45 173.736 31.85 172.536 30.65C169.836 31.85 167.136 32.45 164.436 32.45C162.366 32.45 160.791 31.865 159.711 30.695C158.631 29.525 158.091 27.845 158.091 25.655C158.091 23.465 158.646 21.86 159.756 20.84C160.866 19.79 162.606 19.145 164.976 18.905L172.041 18.23V16.295C172.041 14.765 171.711 13.67 171.051 13.01C170.391 12.35 169.491 12.02 168.351 12.02C165.951 12.02 163.461 12.17 160.881 12.47L159.486 12.605L159.351 10.04C162.651 9.38 165.576 9.05 168.126 9.05C170.676 9.05 172.521 9.635 173.661 10.805C174.831 11.975 175.416 13.805 175.416 16.295ZM161.556 25.475C161.556 28.235 162.696 29.615 164.976 29.615C167.016 29.615 169.026 29.27 171.006 28.58L172.041 28.22V20.795L165.381 21.425C164.031 21.545 163.056 21.935 162.456 22.595C161.856 23.255 161.556 24.215 161.556 25.475ZM185.45 32H182.075V9.5H185.405V11.075C187.835 9.725 190.16 9.05 192.38 9.05C195.38 9.05 197.39 9.86 198.41 11.48C199.46 13.1 199.985 15.98 199.985 20.12V32H196.655V20.21C196.655 17.09 196.34 14.96 195.71 13.82C195.11 12.65 193.805 12.065 191.795 12.065C190.835 12.065 189.815 12.215 188.735 12.515C187.685 12.785 186.875 13.055 186.305 13.325L185.45 13.73V32ZM206.245 32V9.5H209.62V32H206.245ZM206.245 4.415V0.499998H209.62V4.415H206.245ZM231.974 16.295V27.815C232.064 28.925 232.934 29.585 234.584 29.795L234.449 32.45C232.079 32.45 230.294 31.85 229.094 30.65C226.394 31.85 223.694 32.45 220.994 32.45C218.924 32.45 217.349 31.865 216.269 30.695C215.189 29.525 214.649 27.845 214.649 25.655C214.649 23.465 215.204 21.86 216.314 20.84C217.424 19.79 219.164 19.145 221.534 18.905L228.599 18.23V16.295C228.599 14.765 228.269 13.67 227.609 13.01C226.949 12.35 226.049 12.02 224.909 12.02C222.509 12.02 220.019 12.17 217.439 12.47L216.044 12.605L215.909 10.04C219.209 9.38 222.134 9.05 224.684 9.05C227.234 9.05 229.079 9.635 230.219 10.805C231.389 11.975 231.974 13.805 231.974 16.295ZM218.114 25.475C218.114 28.235 219.254 29.615 221.534 29.615C223.574 29.615 225.584 29.27 227.564 28.58L228.599 28.22V20.795L221.939 21.425C220.589 21.545 219.614 21.935 219.014 22.595C218.414 23.255 218.114 24.215 218.114 25.475Z" fill="white"/>
</svg>
